<svg width="30" height="30" viewBox="0 0 30 30" fill="none" xmlns="http://www.w3.org/2000/svg">
<path d="M22.5 5.625V0H15.9375C14.3841 0 13.125 1.25918 13.125 2.8125V19.6875C13.125 21.2409 14.3841 22.5 15.9375 22.5H27.1875C28.7409 22.5 30 21.2409 30 19.6875V7.5H24.4277C23.3438 7.5 22.5 6.65625 22.5 5.625ZM24.375 0V5.625H30L24.375 0ZM11.25 20.625V7.5H2.8125C1.25918 7.5 0 8.75914 0 10.3125V27.1875C0 28.7409 1.25918 30 2.8125 30H14.0625C15.6159 30 16.875 28.7409 16.875 27.1875V24.375H15C12.9316 24.375 11.25 22.6934 11.25 20.625Z" fill="black"/>
</svg>
