<svg width="30" height="30" viewBox="0 0 30 30" fill="none" xmlns="http://www.w3.org/2000/svg">
<path d="M6.42858 5.625C2.87812 5.625 0 8.09178 0 11.25C0 14.4082 2.87812 16.875 6.42858 16.875C7.18392 16.875 7.89846 16.7399 8.57142 16.5305V16.875C8.57142 18.9434 6.64956 20.625 4.28572 20.625C3.10246 20.625 2.14286 21.4646 2.14286 22.5C2.14286 23.5354 3.10246 24.375 4.28572 24.375C9.01206 24.375 12.8572 21.0106 12.8572 16.875V11.25C12.8572 8.09178 9.9777 5.625 6.42858 5.625ZM30 11.25C30 8.14338 27.1219 5.625 23.5714 5.625C20.021 5.625 17.1428 8.14338 17.1428 11.25C17.1428 14.3566 20.021 16.875 23.5714 16.875C24.3268 16.875 25.0413 16.7399 25.7143 16.5305V16.875C25.7143 18.9434 23.7924 20.625 21.4286 20.625C20.2453 20.625 19.2857 21.4646 19.2857 22.5C19.2857 23.5354 20.2453 24.375 21.4286 24.375C26.1549 24.375 30 21.0106 30 16.875V11.25Z" fill="black"/>
</svg>
