<svg width="30" height="30" viewBox="0 0 30 30" fill="none" xmlns="http://www.w3.org/2000/svg">
<path d="M6.42858 13.125C5.67322 13.125 4.95871 13.2598 4.28572 13.4707V13.125C4.28572 11.0566 6.2076 9.375 8.57142 9.375C9.75468 9.375 10.7143 8.53536 10.7143 7.5C10.7143 6.46464 9.75672 5.625 8.57142 5.625C3.84509 5.625 0 8.9883 0 13.125V18.75C0 21.8566 2.87812 24.375 6.42858 24.375C9.97902 24.375 12.8572 21.8566 12.8572 18.75C12.8572 15.6434 9.9777 13.125 6.42858 13.125ZM23.5714 13.125C22.8161 13.125 22.1015 13.2601 21.4286 13.4695V13.125C21.4286 11.0566 23.3504 9.375 25.7143 9.375C26.8975 9.375 27.8572 8.53536 27.8572 7.5C27.8572 6.46464 26.8975 5.625 25.7143 5.625C20.9879 5.625 17.1428 8.98944 17.1428 13.125V18.75C17.1428 21.8566 20.021 24.375 23.5714 24.375C27.1219 24.375 30 21.8566 30 18.75C30 15.6434 27.1205 13.125 23.5714 13.125Z" fill="black"/>
</svg>
