<svg width="30" height="30" viewBox="0 0 30 30" fill="none" xmlns="http://www.w3.org/2000/svg">
<path d="M19.2307 10.6641C18.7516 10.1757 18.0464 10.2617 17.6577 10.8634C17.2659 11.4634 17.3358 12.3488 17.815 12.8403C18.3405 13.3828 18.6435 14.168 18.6435 14.9473C18.6435 15.7775 18.3405 16.5639 17.8134 17.1052C17.3342 17.5972 17.2643 18.4822 17.6561 19.0822C17.876 19.4224 18.1977 19.598 18.5211 19.598C18.7702 19.598 19.0222 19.4937 19.2291 19.2816C20.2795 18.2519 20.8807 16.6758 20.8807 14.9473C20.8807 13.2188 20.2795 11.7422 19.2307 10.6641ZM22.0505 6.33984C21.5742 5.85152 20.8695 5.93566 20.4761 6.53555C20.0843 7.13555 20.1543 8.0209 20.632 8.5125C22.2137 10.0839 23.1179 12.498 23.1179 14.9473C23.1179 17.3965 22.2118 19.7578 20.6332 21.4335C20.1554 21.9255 20.0855 22.8105 20.4773 23.4105C20.6987 23.7489 21.019 23.9245 21.3424 23.9245C21.5929 23.9245 21.8434 23.8203 22.0518 23.6062C24.1526 21.498 25.3551 18.3399 25.3551 14.9473C25.3551 11.5547 24.1526 8.49609 22.0505 6.33984ZM24.9077 1.95702C24.4313 1.46871 23.7266 1.55466 23.3332 2.15273C22.9414 2.75273 23.0114 3.63808 23.4891 4.12968C26.0962 6.81445 27.5924 10.7754 27.5924 14.9473C27.5924 19.1192 26.0967 23.1328 23.488 25.8164C23.0102 26.3084 22.9403 27.1934 23.3321 27.7934C23.5514 28.1835 23.873 28.3593 24.1992 28.3593C24.4497 28.3593 24.7002 28.2551 24.9086 28.0412C28.0351 24.8203 29.8295 20.0684 29.8295 14.9473C29.8295 9.8262 28.0351 5.17617 24.9077 1.95702ZM14.0385 2.0496C13.5025 1.74603 12.8729 1.86937 12.4338 2.35956L6.14302 9.38083H2.23722C1.00162 9.38083 0 10.6395 0 12.191V17.8113C0 19.3629 1.00162 20.6215 2.23722 20.6215H6.14489L12.4324 27.641C12.7102 27.9492 13.0644 28.1133 13.4233 28.1133C13.6302 28.1133 13.8408 28.0587 14.0367 27.9471C14.5745 27.6445 14.9148 26.9765 14.9148 26.2442V3.75702C14.9148 3.02051 14.5745 2.35136 14.0385 2.0496Z" fill="black"/>
</svg>
